<svg id="Layer_1" data-name="Layer 1" xmlns="http://www.w3.org/2000/svg" viewBox="0 0 600 600"><defs><style>.cls-1{fill:#611912;}.cls-2{fill:#fece9d;}.cls-3{fill:#fc4833;}</style></defs><circle class="cls-1" cx="300" cy="302.08" r="267.03"/><path class="cls-2" d="M408.06,309.74l-7-37.62V272l-18.2-97.15a7.83,7.83,0,0,0-7.66-6.34H225a7.82,7.82,0,0,0-7.66,6.35L192.07,309.74a110.09,110.09,0,0,0,2,49.37l.52,1.65c.58,1.95,1.08,3.51,1.63,5.06A111.14,111.14,0,0,0,222,407.22a116.64,116.64,0,0,0,17.33,14.33c2.16,1.44,4.49,2.87,7.14,4.39a112.17,112.17,0,0,0,20.16,8.75,4.06,4.06,0,0,0,.41.13,111.64,111.64,0,0,0,33.1,5c2.9,0,6-.15,9.43-.43a107.23,107.23,0,0,0,39.53-11.08,114,114,0,0,0,12.1-7c2.39-1.59,4.61-3.23,6.78-5,2.51-2,4.71-3.85,6.71-5.76,1.15-1.07,2.23-2.15,3.17-3.09,1.95-1.95,3.51-3.62,4.86-5.21,1.9-2.07,3.63-4.31,5.34-6.54l.08-.1a1.12,1.12,0,0,0,.17-.2h0l.09-.12c.77-1,1.55-2.15,2.3-3.24s1.7-2.51,2.43-3.64A109.23,109.23,0,0,0,408.06,309.74ZM297.79,421.23c4.75-2.15,9-3.91,13.07-5.41a260.19,260.19,0,0,1,26.54-8.6c1-.27,2-.52,3-.77.82-.21,1.66-.42,2.42-.63,1.72-.41,3.52-.82,5.32-1.23l.14,0c4.36-1,8.79-1.92,12.88-2.67-.23.19-.45.4-.63.57a4.68,4.68,0,0,0-.8.64,4,4,0,0,1-.5.39l-.2.15c-2,1.7-4.28,3.29-6.43,4.8a64.23,64.23,0,0,1-6,3.61c-1.46.8-3,1.64-4.45,2.39l-.31.15-.15.09-.26.07-.25.13c-1.51.79-3,1.43-4.63,2.11a93.87,93.87,0,0,1-28.3,7c-2.38.23-4.9.33-7.94.33-1.93,0-3.91-.08-5.87-.16-.36,0-.75-.07-1.15-.09l-1.05-.08-.33,0Q294.82,422.52,297.79,421.23Zm49.27-32.43c-1.82.42-3.63.83-5.34,1.24-2.05.46-4.07,1-5.53,1.44a272.75,272.75,0,0,0-54.31,20.08c-3.62,1.72-7.18,3.59-10.56,5.53-1,.58-2,1.17-3,1.75Q266,418,263.65,417a74.23,74.23,0,0,1-9.54-4.64l-.3-.15a3.1,3.1,0,0,1-.56-.37l-.36-.22c-.5-.26-1-.51-1.41-.77a2.31,2.31,0,0,0-.6-.37c-.61-.34-1.24-.74-1.91-1.17l-1-.65a96.76,96.76,0,0,1-14.87-12.33A84.73,84.73,0,0,1,225,387c-.74-1-1.45-1.93-2.12-2.94a74.65,74.65,0,0,1-5.3-8.4l-.06-.1a47.94,47.94,0,0,1-2.35-4.54c-1.11-2.23-2.15-4.61-3.15-7.2,29.21-8.88,54.78-23.08,81.83-38.08,2.73-1.49,5.56-3,8.3-4.62l1.8-1c1.13-.62,2.29-1.24,3.37-1.86.71-.37,1.41-.75,2.12-1.14,1.06-.57,2.13-1.15,3.29-1.74,21.88-11.87,46-24,74.52-32.31l5.58,29.52a97.38,97.38,0,0,1,1.64,17.49A93.22,93.22,0,0,1,380,380.21l0,0c-.7,1.15-1.45,2.24-2.26,3.39-10.17,1.24-20.42,3-30.49,5.15Zm21.66-204.69,15.65,83.62c-31,8.87-57.77,22.28-82.05,35.57a273,273,0,0,0-85.29-42l14.47-77.16ZM287.11,311.63l-.82.46c-24.86,13.86-50.53,28.18-78.62,36.68a91.28,91.28,0,0,1-.28-36.16l6.76-35.9A257.3,257.3,0,0,1,287.11,311.63Z"/><circle class="cls-3" cx="375.71" cy="175.8" r="41.12"/></svg>