<svg id="Layer_1" data-name="Layer 1" xmlns="http://www.w3.org/2000/svg" viewBox="0 0 600 600"><defs><style>.cls-1{fill: #fece9d;}  .cls-2{fill:#fc4833;}</style></defs><path class="cls-1" d="M483.92,339.54l-12.35-66.17v-.15l-32-170.9a13.76,13.76,0,0,0-13.47-11.14H162a13.76,13.76,0,0,0-13.47,11.16L104,339.54a193.45,193.45,0,0,0,3.48,86.84l.91,2.91c1,3.42,1.91,6.17,2.87,8.89A195.51,195.51,0,0,0,156.59,511a204.63,204.63,0,0,0,30.49,25.2c3.8,2.53,7.89,5,12.56,7.72a195.74,195.74,0,0,0,35.45,15.39,4,4,0,0,0,.73.23A195.86,195.86,0,0,0,294,568.4c5.1,0,10.53-.25,16.59-.76a188.5,188.5,0,0,0,69.52-19.49,199,199,0,0,0,21.29-12.23c4.19-2.8,8.11-5.68,11.92-8.75A153.31,153.31,0,0,0,425.16,517c2-1.88,3.92-3.77,5.59-5.44,3.42-3.42,6.17-6.36,8.55-9.15,3.34-3.65,6.38-7.59,9.39-11.5l.14-.18.3-.35,0,0v0l.16-.21c1.36-1.81,2.72-3.78,4-5.69,1.57-2.19,3-4.42,4.28-6.41A192.18,192.18,0,0,0,483.92,339.54ZM290,535.65c8.36-3.77,15.87-6.88,23-9.52A460.44,460.44,0,0,1,359.63,511c1.69-.48,3.43-.92,5.19-1.36,1.45-.37,2.91-.74,4.25-1.11,3-.72,6.19-1.44,9.36-2.16l.25-.06c7.66-1.82,15.47-3.38,22.65-4.7-.41.35-.79.71-1.1,1a8,8,0,0,0-1.41,1.12,7,7,0,0,1-.87.68l-.36.27c-3.56,3-7.53,5.78-11.32,8.45a110.68,110.68,0,0,1-10.52,6.34c-2.55,1.42-5.19,2.89-7.82,4.2l-.54.28-.26.15-.47.12-.43.23c-2.66,1.39-5.3,2.51-8.15,3.71a146.41,146.41,0,0,1-30.18,9.37,146.77,146.77,0,0,1-19.6,2.88c-4.18.39-8.62.58-14,.58-3.39,0-6.88-.15-10.32-.29-.64-.07-1.32-.11-2-.15s-1.13-.07-1.85-.14l-.57-.05C283,538.75,286.46,537.16,290,535.65Zm86.67-57c-3.19.73-6.39,1.46-9.4,2.17-3.6.82-7.15,1.81-9.73,2.55A479.37,479.37,0,0,0,262,518.64c-6.37,3-12.63,6.32-18.58,9.74-1.81,1-3.54,2-5.25,3.06-2.71-1-5.45-2.08-8.25-3.29A131.65,131.65,0,0,1,213.12,520l-.52-.26a5.41,5.41,0,0,1-1-.66l-.63-.39c-.89-.44-1.69-.89-2.49-1.34a4.23,4.23,0,0,0-1.05-.66c-1.08-.59-2.18-1.3-3.35-2-.65-.42-1.31-.84-1.82-1.15a171.27,171.27,0,0,1-26.16-21.68,153.65,153.65,0,0,1-14.19-16.38c-1.31-1.75-2.54-3.39-3.74-5.17a134,134,0,0,1-9.32-14.78l-.11-.18a87.05,87.05,0,0,1-4.12-8c-2-3.93-3.79-8.1-5.55-12.67C190.46,419,235.45,394,283,367.65c4.8-2.62,9.77-5.33,14.6-8.12l3.16-1.72c2-1.07,4-2.17,5.94-3.27,1.23-.64,2.47-1.32,3.72-2,1.86-1,3.74-2,5.79-3.06,38.49-20.88,81-42.16,131.07-56.84l9.82,51.92A171.92,171.92,0,0,1,460,375.33a164,164,0,0,1-25.54,88.17l0,.06c-1.23,2-2.55,3.94-4,6-17.9,2.17-35.92,5.21-53.64,9.05Zm38.1-360,27.53,147.09c-54.61,15.6-101.62,39.18-144.34,62.56a479.75,479.75,0,0,0-150-73.92l25.46-135.73ZM271.17,342.86l-1.45.82c-43.71,24.38-88.88,49.56-138.29,64.51a160.82,160.82,0,0,1-.49-63.59l11.89-63.17A453.2,453.2,0,0,1,271.17,342.86Z"/><circle class="cls-2" cx="427.02" cy="103.94" r="72.34"/></svg>
