<svg id="Layer_1" data-name="Layer 1" xmlns="http://www.w3.org/2000/svg" viewBox="0 0 600 600"><defs><style>.cls-1{fill:#fc4833;}</style></defs><path class="cls-1" d="M434.91,569.1H165.12c-74,0-134.22-60.2-134.22-134.2V165.1c0-74,60.21-134.2,134.22-134.2H434.91c74,0,134.19,60.2,134.19,134.2V434.9C569.1,508.9,508.89,569.1,434.91,569.1ZM165.12,81.27A83.93,83.93,0,0,0,81.27,165.1V434.9a83.93,83.93,0,0,0,83.85,83.83H434.91a83.93,83.93,0,0,0,83.82-83.83V165.1a83.93,83.93,0,0,0-83.82-83.83Z"/><path class="cls-1" d="M454.45,238.72a39.59,39.59,0,0,1-11.61,28L300,409.59a39.69,39.69,0,0,1-56.1,0l-77.15-77.13a39.67,39.67,0,1,1,56.1-56.1L272,325.44,386.74,210.67a39.66,39.66,0,0,1,67.71,28.05Z"/></svg>