<svg id="Layer_1" data-name="Layer 1" xmlns="http://www.w3.org/2000/svg" viewBox="0 0 600 600"><defs><style>.cls-1{fill:#611912;}.cls-2{isolation:isolate;}.cls-3{fill:#fec285;}.cls-4{fill:#b40d06;}</style></defs><circle class="cls-1" cx="300" cy="300" r="269.1"/><g class="cls-2"><path class="cls-3" d="M391,456.55H382l-4.15-13.08h-25l-4.22,13.08h-8.51l19.92-60h11.21Zm-15.36-20.34-10.17-32.1-10.17,32.1Z"/><path class="cls-3" d="M437.18,440.29a15.32,15.32,0,0,1-1.73,7.47,14.91,14.91,0,0,1-4.84,5.33,21.68,21.68,0,0,1-7.47,3.18,42.16,42.16,0,0,1-9.69,1q-2.38,0-4.77-.21c-1.59-.14-3.12-.27-4.57-.48s-2.83-.42-4.08-.62-2.42-.49-3.46-.76v-7.89a43.84,43.84,0,0,0,7.75,2,58.68,58.68,0,0,0,9.75.76,30.78,30.78,0,0,0,6.71-.63,12.56,12.56,0,0,0,4.57-1.86,7.57,7.57,0,0,0,2.56-3,9.3,9.3,0,0,0,.83-4,6.65,6.65,0,0,0-1.39-4.15,12.59,12.59,0,0,0-3.52-3.05,32.56,32.56,0,0,0-5.05-2.49c-1.87-.76-3.81-1.52-5.74-2.28s-3.88-1.66-5.75-2.56a23,23,0,0,1-5.05-3.32,14.78,14.78,0,0,1-3.52-4.5,12.9,12.9,0,0,1-1.39-6.08,15.06,15.06,0,0,1,5.33-11.42,21.92,21.92,0,0,1,6.92-3.73,31.34,31.34,0,0,1,10.1-1.46c1,0,2.07.07,3.25.14a33.28,33.28,0,0,1,3.59.42c1.18.14,2.43.34,3.6.55s2.28.42,3.25.69v7.34a50.78,50.78,0,0,0-7.05-1.53,48.08,48.08,0,0,0-6.85-.55c-4.71,0-8.09.76-10.31,2.35a7.38,7.38,0,0,0-3.32,6.3,6.58,6.58,0,0,0,1.38,4.15,13.12,13.12,0,0,0,3.53,3.11,31.68,31.68,0,0,0,5.05,2.49c1.87.76,3.81,1.52,5.74,2.28s3.88,1.66,5.75,2.63a26.53,26.53,0,0,1,5,3.39,16.3,16.3,0,0,1,3.52,4.57A14.75,14.75,0,0,1,437.18,440.29Z"/></g><path class="cls-3" d="M231.45,374V317.57c0-2.07-.07-3.87-.14-5.39a23.81,23.81,0,0,0-.63-3.88,5.25,5.25,0,0,0-1.45-2.35,4,4,0,0,0-2.56-.76c-1.66,0-3.32,1.18-5,3.46s-3.46,6.16-5.53,11.69v53.75h-17V317.64c0-2.07-.07-3.87-.14-5.39a23.73,23.73,0,0,0-.62-3.88,5.28,5.28,0,0,0-1.45-2.35,4.3,4.3,0,0,0-2.63-.76c-1.39,0-3,1.18-4.71,3.46s-3.66,6.15-5.81,11.69v53.75H166.49v-83h14.73l.35,12a51,51,0,0,1,3.6-6.29,21.27,21.27,0,0,1,3.8-4.29,13.5,13.5,0,0,1,4.36-2.42,17.34,17.34,0,0,1,5.26-.76c4.63,0,8.16,1.17,10.58,3.6s3.81,5.74,4.15,10.09a60,60,0,0,1,3.88-6.29,21.62,21.62,0,0,1,4-4.29,13.37,13.37,0,0,1,4.49-2.42,18.54,18.54,0,0,1,5.33-.76c6,0,10.52,2.07,13.35,6.29s4.29,10.45,4.29,18.68v59.42H231.45Z"/><path class="cls-3" d="M336.94,326.22c0,1.38-.07,3.11-.14,5.33s-.21,4.22-.34,6.08H282a25.84,25.84,0,0,0,1.66,9.62,19.18,19.18,0,0,0,4.71,7,20.38,20.38,0,0,0,7.33,4.29,29.56,29.56,0,0,0,9.48,1.45,98,98,0,0,0,12.93-1,108.55,108.55,0,0,0,14.32-3v15.84c-2.14.62-4.42,1.17-6.91,1.66s-5,.9-7.68,1.31-5.26.69-7.89.83-5.26.28-7.75.28a49.72,49.72,0,0,1-16.94-2.7,33.5,33.5,0,0,1-12.73-7.95,35.41,35.41,0,0,1-8-13,52.67,52.67,0,0,1-2.76-17.92,57.35,57.35,0,0,1,2.76-18.4,42,42,0,0,1,7.82-14.18,34.7,34.7,0,0,1,12.24-9.13,39.33,39.33,0,0,1,16.12-3.25,41.7,41.7,0,0,1,15.57,2.7,31.14,31.14,0,0,1,11.34,7.61,32.24,32.24,0,0,1,6.92,11.69A43,43,0,0,1,336.94,326.22Zm-20.2-2.84a23.2,23.2,0,0,0-1.24-8.51,18.23,18.23,0,0,0-3.53-6,14.41,14.41,0,0,0-5.19-3.53,18,18,0,0,0-6.43-1.11,16.38,16.38,0,0,0-12.32,5c-3.18,3.32-5.12,8-5.67,14.11h34.38Z"/><path class="cls-3" d="M406,374v-54c0-9.06-3.39-13.62-10.1-13.62-3.39,0-6.57,1.38-9.69,4.08a74.1,74.1,0,0,0-9.75,11.07V374H356.52V291.15h17.22l.49,12.24a55.09,55.09,0,0,1,5.25-5.81,29.17,29.17,0,0,1,12.73-7.26,32.84,32.84,0,0,1,8.23-1,27.3,27.3,0,0,1,11.07,2.07,20.45,20.45,0,0,1,7.89,5.88,25.13,25.13,0,0,1,4.77,9.14,42.33,42.33,0,0,1,1.59,12V374Z"/><path class="cls-3" d="M168.08,395.81h-4.57v-2.28h11.83v2.28h-4.56V411h4.56v2.28H163.51V411h4.57Z"/><path class="cls-3" d="M180.39,398.09h2.36l.13,2.43a7.82,7.82,0,0,1,1.32-1.32,6.88,6.88,0,0,1,1.24-.83,4.36,4.36,0,0,1,1.25-.41,7.51,7.51,0,0,1,1.31-.14,4.38,4.38,0,0,1,3.53,1.38,6,6,0,0,1,1.18,4.15v9.89h-2.63v-9.68a4,4,0,0,0-.69-2.63,2.4,2.4,0,0,0-2-.83,4.63,4.63,0,0,0-1,.14,4.55,4.55,0,0,0-1,.48,6.87,6.87,0,0,0-1.1,1,17.18,17.18,0,0,0-1.32,1.52v10.1h-2.63Z"/><path class="cls-3" d="M197.41,398.09h2.35l.14,2.43a7.82,7.82,0,0,1,1.32-1.32,6.88,6.88,0,0,1,1.24-.83,4.36,4.36,0,0,1,1.25-.41,7.51,7.51,0,0,1,1.31-.14,4.38,4.38,0,0,1,3.53,1.38,6,6,0,0,1,1.17,4.15v9.89H207.1v-9.68a3.94,3.94,0,0,0-.7-2.63,2.36,2.36,0,0,0-2-.83,3.28,3.28,0,0,0-1.94.62,6.89,6.89,0,0,0-1.11,1,17.23,17.23,0,0,0-1.31,1.52v10.1h-2.63Z"/><path class="cls-3" d="M227.71,405.57a9.9,9.9,0,0,1-.48,3.25,8.4,8.4,0,0,1-1.46,2.56,7,7,0,0,1-2.28,1.66,7.32,7.32,0,0,1-3,.55,7.66,7.66,0,0,1-2.91-.48,6,6,0,0,1-2.21-1.53,6.29,6.29,0,0,1-1.39-2.42,10,10,0,0,1-.48-3.32,9.9,9.9,0,0,1,.48-3.25,7.32,7.32,0,0,1,1.46-2.49,7,7,0,0,1,2.28-1.66,7.32,7.32,0,0,1,3-.55,7.66,7.66,0,0,1,2.91.48,6.89,6.89,0,0,1,2.21,1.45,6.54,6.54,0,0,1,1.39,2.43A10,10,0,0,1,227.71,405.57Zm-2.7.13a9.5,9.5,0,0,0-.27-2.49,3.83,3.83,0,0,0-.9-1.73,3.29,3.29,0,0,0-1.39-1,5.19,5.19,0,0,0-1.87-.35,3.69,3.69,0,0,0-2,.49,3.36,3.36,0,0,0-1.38,1.24,4.68,4.68,0,0,0-.77,1.8,11.28,11.28,0,0,0-.27,2.14,9.45,9.45,0,0,0,.27,2.49,4.91,4.91,0,0,0,.9,1.8,3.32,3.32,0,0,0,1.39,1,5.18,5.18,0,0,0,1.86.35,3.7,3.7,0,0,0,2-.49,3.36,3.36,0,0,0,1.38-1.24,4.75,4.75,0,0,0,.77-1.8A8,8,0,0,0,225,405.7Z"/><path class="cls-3" d="M230.13,398.09h3l3.73,10,.83,2.42.83-2.49,3.67-10h2.9l-5.95,15.21h-3Z"/><path class="cls-3" d="M258.36,413.31l-.07-2.07a9.5,9.5,0,0,1-2.49,1.8,7.07,7.07,0,0,1-2.7.55,6.75,6.75,0,0,1-2.22-.35,4.69,4.69,0,0,1-1.52-.89,3.79,3.79,0,0,1-.9-1.39,4.94,4.94,0,0,1-.27-1.73,4.21,4.21,0,0,1,1.73-3.59,8.44,8.44,0,0,1,5.05-1.32h3.18V403a2.9,2.9,0,0,0-.83-2.15,3.65,3.65,0,0,0-2.63-.83,10.63,10.63,0,0,0-2.56.28,21.64,21.64,0,0,0-2.56.83v-2.35c.35-.14.69-.21,1.11-.35a7.21,7.21,0,0,1,1.31-.28l1.45-.2a10.7,10.7,0,0,1,1.53-.07,9.8,9.8,0,0,1,2.49.27,4.75,4.75,0,0,1,1.86.9,4.59,4.59,0,0,1,1.18,1.59,5.49,5.49,0,0,1,.42,2.22v10.51h-2.56Zm-.28-6.91h-3.32a7,7,0,0,0-1.73.2,4.62,4.62,0,0,0-1.18.56,2.85,2.85,0,0,0-.69.9,2.91,2.91,0,0,0-.21,1.17,3.35,3.35,0,0,0,.14.83,1.38,1.38,0,0,0,.42.69,2.69,2.69,0,0,0,.76.49,2.91,2.91,0,0,0,1.17.21,5.11,5.11,0,0,0,2.08-.56,11.52,11.52,0,0,0,2.49-1.73V406.4Z"/><path class="cls-3" d="M277.93,413.11c-.62.13-1.24.27-1.87.34a17.79,17.79,0,0,1-1.93.07,6,6,0,0,1-4.29-1.31,5,5,0,0,1-1.38-3.95v-7.95h-4.29v-2.22h4.29v-4.15l2.62-.69v4.84h6.85v2.22h-6.85v7.75a2.92,2.92,0,0,0,.9,2.42,3.6,3.6,0,0,0,2.56.83,13.17,13.17,0,0,0,1.59-.14c.56-.07,1.18-.21,1.8-.35v2.29Z"/><path class="cls-3" d="M287.89,400.31H283.4v-2.22h7.19v13h4.5v2.21H282.91V411.1h5Zm1-8.58a3.35,3.35,0,0,1,.83.14,6.63,6.63,0,0,1,.69.41,1.45,1.45,0,0,1,.42.7,1.59,1.59,0,0,1,.14.83,3.52,3.52,0,0,1-.14.83,7,7,0,0,1-.42.69,1.36,1.36,0,0,1-.69.41,1.72,1.72,0,0,1-.83.14,3.52,3.52,0,0,1-.83-.14,7,7,0,0,1-.69-.41,1.37,1.37,0,0,1-.41-.69,1.76,1.76,0,0,1-.14-.83,3.35,3.35,0,0,1,.14-.83,5,5,0,0,1,.41-.7,1.53,1.53,0,0,1,.69-.41A2.59,2.59,0,0,1,288.86,391.73Z"/><path class="cls-3" d="M298.34,398.09h3l3.74,10,.83,2.42.83-2.49,3.67-10h2.9l-5.95,15.21h-3Z"/><path class="cls-3" d="M329.68,404.94v1a2.07,2.07,0,0,1-.07.69H319a4.7,4.7,0,0,0,1.32,3.6,5.29,5.29,0,0,0,3.73,1.25,8.35,8.35,0,0,0,1.32-.07c.41-.07.9-.07,1.31-.14l1.18-.21a4.52,4.52,0,0,0,1-.28v2.15a21.8,21.8,0,0,1-5.26.69,10.07,10.07,0,0,1-3.39-.55,5.54,5.54,0,0,1-2.28-1.52,6.2,6.2,0,0,1-1.32-2.5,12.31,12.31,0,0,1-.41-3.32,9.21,9.21,0,0,1,.48-3,8.41,8.41,0,0,1,1.32-2.49,6.61,6.61,0,0,1,2.14-1.73,6.71,6.71,0,0,1,2.91-.62,7.51,7.51,0,0,1,2.83.48,6.48,6.48,0,0,1,2.08,1.39,6.23,6.23,0,0,1,1.24,2.21A8.7,8.7,0,0,1,329.68,404.94Zm-2.7-.41a7.64,7.64,0,0,0-.21-1.87,3.61,3.61,0,0,0-.76-1.45,4.38,4.38,0,0,0-1.24-1,4.52,4.52,0,0,0-1.73-.35,4.1,4.1,0,0,0-1.6.35,3.41,3.41,0,0,0-1.24,1,4.9,4.9,0,0,0-.83,1.45,7.34,7.34,0,0,0-.42,1.87Z"/><path class="cls-4" d="M177.7,450.19a6,6,0,0,1-.63,2.76,5.39,5.39,0,0,1-1.8,1.94,7.91,7.91,0,0,1-2.76,1.18,14.49,14.49,0,0,1-3.53.41,14.3,14.3,0,0,1-1.73-.07c-.55-.07-1.11-.07-1.66-.14l-1.52-.2c-.49-.07-.9-.21-1.25-.28v-2.91a14.48,14.48,0,0,0,2.84.76,18.33,18.33,0,0,0,3.6.28,12.86,12.86,0,0,0,2.49-.21,3.66,3.66,0,0,0,1.66-.69,3.43,3.43,0,0,0,1-1.11,3.13,3.13,0,0,0,.28-1.45,2.27,2.27,0,0,0-.48-1.52,4.13,4.13,0,0,0-1.32-1.11,12.06,12.06,0,0,0-1.87-.9c-.69-.27-1.38-.55-2.14-.83a19.83,19.83,0,0,1-2.14-1,8.84,8.84,0,0,1-1.87-1.25,6,6,0,0,1-1.32-1.66A4.59,4.59,0,0,1,163,440a5,5,0,0,1,.48-2.22,5.64,5.64,0,0,1,1.46-1.93,8.09,8.09,0,0,1,2.56-1.39,11.93,11.93,0,0,1,3.73-.55,7.08,7.08,0,0,1,1.18.07,8.33,8.33,0,0,1,1.31.14l1.32.2a5.73,5.73,0,0,1,1.17.28v2.7a18.94,18.94,0,0,0-5.05-.76,6.82,6.82,0,0,0-3.8.83,2.6,2.6,0,0,0-1.25,2.28,2.21,2.21,0,0,0,.49,1.52,5.41,5.41,0,0,0,1.31,1.18,12.51,12.51,0,0,0,1.87.9c.69.27,1.38.55,2.14.83a18.25,18.25,0,0,1,2.15,1,8.94,8.94,0,0,1,1.87,1.24,6.32,6.32,0,0,1,1.31,1.66A7,7,0,0,1,177.7,450.19Z"/><path class="cls-4" d="M197.27,447.56a12,12,0,0,1-.55,3.59,8.23,8.23,0,0,1-1.59,2.84,6.9,6.9,0,0,1-2.56,1.8,9.09,9.09,0,0,1-3.39.62,9.53,9.53,0,0,1-3.25-.55,5.45,5.45,0,0,1-2.42-1.66,8.48,8.48,0,0,1-1.53-2.7,12.48,12.48,0,0,1,0-7.33,7.22,7.22,0,0,1,1.6-2.77,6.94,6.94,0,0,1,2.55-1.8,9.09,9.09,0,0,1,3.39-.62,9.59,9.59,0,0,1,3.26.55,5.57,5.57,0,0,1,2.42,1.66,6.45,6.45,0,0,1,1.52,2.7A11.86,11.86,0,0,1,197.27,447.56Zm-3,.13a11.07,11.07,0,0,0-.35-2.76,4.92,4.92,0,0,0-1-1.94,3.82,3.82,0,0,0-1.59-1.18,5.13,5.13,0,0,0-2.07-.41,4.47,4.47,0,0,0-2.22.48,4.93,4.93,0,0,0-1.52,1.39,6,6,0,0,0-.9,2,9.14,9.14,0,0,0-.27,2.36,11.09,11.09,0,0,0,.34,2.76,5.2,5.2,0,0,0,1,1.94,4.27,4.27,0,0,0,1.52,1.18,5,5,0,0,0,2.08.41,4.41,4.41,0,0,0,2.21-.48,4.82,4.82,0,0,0,1.52-1.39,5.64,5.64,0,0,0,.9-2A6.43,6.43,0,0,0,194.23,447.69Z"/><path class="cls-4" d="M207.23,434.76h-5v-2.42h8v21.37h5v2.42H201.7v-2.42h5.53Z"/><path class="cls-4" d="M234,456.13h-2.63l-.07-2.69a15.3,15.3,0,0,1-1.46,1.45,8.47,8.47,0,0,1-1.38,1,4.61,4.61,0,0,1-1.38.48,10.3,10.3,0,0,1-1.46.14,4.91,4.91,0,0,1-3.94-1.52,6.87,6.87,0,0,1-1.31-4.64V439.26h2.9v10.79c0,2.56,1,3.87,2.91,3.87a3.47,3.47,0,0,0,2.14-.69c.35-.28.76-.62,1.25-1s.9-1,1.45-1.73v-11.2h2.91v16.87Z"/><path class="cls-4" d="M253,455.93a18.43,18.43,0,0,1-2.08.34c-.69.07-1.45.14-2.14.14A6.76,6.76,0,0,1,244,455a5.75,5.75,0,0,1-1.6-4.43v-8.85h-4.7v-2.49h4.7v-4.64l2.91-.76v5.4H253v2.49h-7.61v8.57a3.46,3.46,0,0,0,1,2.7,3.88,3.88,0,0,0,2.83.9c.56,0,1.11-.07,1.8-.14a11.22,11.22,0,0,0,2-.41v2.63Z"/><path class="cls-4" d="M264.1,441.68h-5v-2.42h7.95v14.45h5.05v2.42H258.56v-2.42h5.54Zm1-9.48a1.87,1.87,0,0,1,.9.21,2.86,2.86,0,0,1,.77.48,3.27,3.27,0,0,1,.48.76,1.93,1.93,0,0,1,.21.9,1.9,1.9,0,0,1-.21.9,3.07,3.07,0,0,1-.48.76,2.89,2.89,0,0,1-.77.49,2.1,2.1,0,0,1-1.79,0,2.89,2.89,0,0,1-.77-.49,3.07,3.07,0,0,1-.48-.76,1.9,1.9,0,0,1-.21-.9,1.93,1.93,0,0,1,.21-.9,3.27,3.27,0,0,1,.48-.76,2.86,2.86,0,0,1,.77-.48A1.31,1.31,0,0,1,265.13,432.2Z"/><path class="cls-4" d="M292,447.56a11.7,11.7,0,0,1-.55,3.59A8.07,8.07,0,0,1,289.9,454a6.9,6.9,0,0,1-2.56,1.8,9.05,9.05,0,0,1-3.39.62,9.57,9.57,0,0,1-3.25-.55,5.45,5.45,0,0,1-2.42-1.66,8.46,8.46,0,0,1-1.52-2.7,12.27,12.27,0,0,1,0-7.33,7.2,7.2,0,0,1,1.59-2.77,6.9,6.9,0,0,1,2.56-1.8,9,9,0,0,1,3.39-.62,9.57,9.57,0,0,1,3.25.55,5.45,5.45,0,0,1,2.42,1.66,6.34,6.34,0,0,1,1.52,2.7A11.57,11.57,0,0,1,292,447.56Zm-3,.13a11.07,11.07,0,0,0-.35-2.76,5,5,0,0,0-1-1.94,4,4,0,0,0-1.59-1.18,5.22,5.22,0,0,0-2.08-.41,4.41,4.41,0,0,0-2.21.48,4.86,4.86,0,0,0-1.53,1.39,5.81,5.81,0,0,0-.89,2,8.72,8.72,0,0,0-.28,2.36,11.58,11.58,0,0,0,.34,2.76,5.2,5.2,0,0,0,1,1.94,4.27,4.27,0,0,0,1.52,1.18,5,5,0,0,0,2.08.41,4.41,4.41,0,0,0,2.21-.48,4.86,4.86,0,0,0,1.53-1.39,5.81,5.81,0,0,0,.89-2A6.43,6.43,0,0,0,289,447.69Z"/><path class="cls-4" d="M296.26,439.26h2.63L299,442a16.51,16.51,0,0,1,1.45-1.45,9,9,0,0,1,1.39-1,4.61,4.61,0,0,1,1.38-.48,10.31,10.31,0,0,1,1.45-.14,4.92,4.92,0,0,1,3.95,1.52,6.87,6.87,0,0,1,1.31,4.64v11h-2.9v-10.8a4.72,4.72,0,0,0-.76-2.9,2.71,2.71,0,0,0-2.22-1,5.41,5.41,0,0,0-1,.14,2.48,2.48,0,0,0-1,.55,14,14,0,0,0-1.18,1c-.41.41-.9,1-1.45,1.66V456h-2.91V439.26Z"/><path class="cls-4" d="M328.57,451.57a3.79,3.79,0,0,1-.28,1.59,3.7,3.7,0,0,1-.83,1.24,5.56,5.56,0,0,1-1.24,1,6.71,6.71,0,0,1-1.45.63,15.21,15.21,0,0,1-1.6.34,13.17,13.17,0,0,1-1.59.14c-1.17,0-2.21-.07-3.18-.14a20.06,20.06,0,0,1-2.84-.48v-2.7a22.42,22.42,0,0,0,5.88.83,7.26,7.26,0,0,0,3.12-.55,1.81,1.81,0,0,0,1-1.66,3.35,3.35,0,0,0-.14-.83,2.46,2.46,0,0,0-.56-.7,7.69,7.69,0,0,0-1.31-.69l-2.42-.83A20.17,20.17,0,0,1,319,448a6.85,6.85,0,0,1-1.66-1,4.17,4.17,0,0,1-1.1-1.38,4.08,4.08,0,0,1-.42-1.87,4.31,4.31,0,0,1,.35-1.52,4.66,4.66,0,0,1,1.1-1.59,6,6,0,0,1,2.15-1.18,9.63,9.63,0,0,1,3.39-.48c.69,0,1.38.07,2.21.14s1.66.21,2.56.34V442a19,19,0,0,0-2.63-.48,12.12,12.12,0,0,0-2.14-.14,13.64,13.64,0,0,0-1.87.14,2.88,2.88,0,0,0-1.24.48,2.31,2.31,0,0,0-.7.69,2,2,0,0,0-.2.83,1.91,1.91,0,0,0,.2.83,2,2,0,0,0,.63.7,8.15,8.15,0,0,0,1.31.69c.55.21,1.31.48,2.21.76a19.49,19.49,0,0,1,2.49.9,7.84,7.84,0,0,1,1.66,1,3.07,3.07,0,0,1,.9,1.31A4.13,4.13,0,0,1,328.57,451.57Z"/><path class="cls-3" d="M225.07,267.42V219.07H187.38v48.35H166.49v-111h20.89v44.6h37.69v-44.6H246v111Z"/><path class="cls-3" d="M343.52,223.61a56.8,56.8,0,0,1-2.89,18.66,41.16,41.16,0,0,1-8.35,14.49A37,37,0,0,1,319,266.12a45.53,45.53,0,0,1-18,3.32,48.94,48.94,0,0,1-17.14-2.81A34,34,0,0,1,271,258.27a36.71,36.71,0,0,1-8.07-13.91,61.21,61.21,0,0,1-2.81-19.45,56.19,56.19,0,0,1,3-18.66,39.81,39.81,0,0,1,8.43-14.34,37.43,37.43,0,0,1,13.4-9.22,46.77,46.77,0,0,1,17.87-3.24A48.93,48.93,0,0,1,320,182.26a33.14,33.14,0,0,1,12.82,8.43,36.1,36.1,0,0,1,8,13.9A60.29,60.29,0,0,1,343.52,223.61Zm-21.55.51c0-8.94-1.65-15.64-5-20.18s-8.36-6.77-14.92-6.77a19.15,19.15,0,0,0-9.22,2.09,18.71,18.71,0,0,0-6.27,5.84,26.14,26.14,0,0,0-3.6,8.64,45,45,0,0,0-1.15,10.52q0,13.52,5.4,20.32c3.6,4.54,8.58,6.84,14.84,6.84a18.68,18.68,0,0,0,9-2.09,16.94,16.94,0,0,0,6.2-5.76,29.09,29.09,0,0,0,3.6-8.72A50.5,50.5,0,0,0,322,224.12Z"/><path class="cls-3" d="M383,163.6H358.69V147.46H404.3V251.28h24.85v16.14H355.73V251.28h27.38V163.6Z"/></svg>